<svg xmlns="http://www.w3.org/2000/svg" version="1.1" xmlns:xlink="http://www.w3.org/1999/xlink" xmlns:svgjs="http://svgjs.dev/svgjs" viewBox="0 0 800 800"><defs><linearGradient x1="50%" y1="0%" x2="50%" y2="100%" id="ccchaos-grad"><stop stop-color="#1e13f2" stop-opacity="1" offset="0%"></stop><stop stop-color="hsl(281, 71%, 56%)" stop-opacity="1" offset="100%"></stop></linearGradient></defs><g stroke-width="5" stroke="url(#ccchaos-grad)" fill="none" stroke-linecap="round"><path d="M421.09 -13.78C428.71 -15.19 436.11 -16.63 443.27 -18.01 450.42 -19.47 457.31 -20.74 463.95 -21.74 470.55 -22.59 476.86 -23.05 482.88 -23.07 491.65 -22.37 507.44 -17.8 514.38 -13.98 520.82 -9.25 531.71 2.22 536.17 8.58 540.23 14.95 546.9 27.16 549.74 32.71 555.86 41.54 567.88 51.52 573.77 54.12 578.57 55.69 584.03 57.34 590.24 59.13 597.28 60.94 605.17 63 613.94 65.34 623.57 67.87 634.09 70.77 645.46 74.06 657.54 77.64 670.34 81.66 683.73 86.11 697.49 90.9 711.56 96.12 725.73 101.75 739.73 107.71 753.41 114.03 766.53 120.7 778.82 127.62 790.07 134.82 800.03 142.25 808.55 149.86 815.38 157.63 820.35 165.52 823.48 173.49 824.57 181.53 823.58 189.6 820.79 197.67 816.07 205.72 809.57 213.74 801.82 221.69 792.81 229.57 782.86 237.39 772.69 245.1 762.39 252.72 752.38 260.27 743.41 267.69 735.6 275.04 729.37 282.32 725.29 289.48 723.42 296.59 724.01 303.66 727.3 310.63 733.2 317.58 741.63 324.52 752.48 331.39 765.4 338.27 779.99 345.19 795.83 352.05 812.33 358.96 828.9 365.96 844.96 372.91 859.86 379.95 872.98 387.1 883.88 394.23 892 401.48 896.95 408.86 898.68 416.24 896.9 423.75 891.62 431.42 883.29 439.08 872.13 446.81 858.67 454.59 843.58 462.38 827.41 470.21 810.84 478.09 794.58 485.97 779.2 493.87 765.26 501.78 753.32 509.67 743.69 517.54 736.64 525.37 732.46 533.15 731.07 540.84 732.37 548.42 736.39 555.9 742.65 563.21 750.78 570.31 760.63 577.25 771.47 583.92 782.8 590.27 794.45 596.38 805.63 602.12 815.88 607.42 825.13 612.43 832.7 616.95 838.35 620.94 842.85 626.13 837.19 633.12 827.31 634.92 818.23 635.67 807.48 635.91 795.36 635.7 782.12 635.39 768.07 634.76 753.52 633.91 738.69 633.22 723.9 632.52 709.41 631.93 695.36 631.83 682.02 632.09 669.56 632.87 658.02 634.48 647.55 636.85 638.21 640.1 630.01 644.46 622.94 649.87 616.96 656.41 612.07 664.14 608.15 673 605.06 682.98 602.88 693.98 601.32 705.89 600.26 718.56 599.81 731.77 599.63 745.33 599.58 758.99 599.86 772.45 600.08 785.44 600.13 797.67 600.26 808.85 600.09 818.7 599.54 826.94 595.82 837.76 584.53 825.83 578.73 813.55 574.48 804.17 569.78 794.17 564.66 784.02 559.36 774.45 553.68 765.65 547.67 758.08 541.51 752.37 535.07 748.62 528.37 747.13 521.58 748.22 514.57 751.79 507.38 757.82 500.13 766.25 492.73 776.7 485.2 788.8 477.64 802.17 469.97 816.18 462.21 830.24 454.43 843.84 446.58 856.27 438.65 866.95 430.72 875.5 422.81 881.32 414.92 884.18 407.03 884.18 399.16 881.14 391.31 875.24 383.45 866.88 375.6 856.29 367.75 843.95 359.88 830.43 352.01 816.19 344.13 801.81 336.23 787.85 328.3 774.75 320.35 762.96 312.37 752.91 304.36 744.81 296.32 738.83 288.26 735.19 280.16 733.77 272.05 734.45 263.92 737.26 255.79 741.76 247.65 747.63 239.53 754.79 231.43 762.62 223.36 770.71 215.36 778.99 207.42 786.8 199.58 793.79 191.85 799.97 184.24 804.79 176.8 808.06 169.52 809.87 162.44 809.9 155.58 808.13 148.93 804.73 142.54 799.6 136.43 792.88 130.55 784.77 124.97 775.37 119.7 764.88 114.66 753.51 109.93 741.47 105.5 728.98 101.26 716.19 97.29 703.34 93.58 690.62 89.99 678.12 86.6 666.04 83.4 654.5 80.21 643.53 77.15 633.27 74.18 623.74 71.13 614.95 68.12 606.93 65.12 599.66 61.97 593.13 58.79 587.28 55.59 582.03 50.5 575.37 39.94 564.85 34.57 560.53 29.11 556.78 18.67 549.45 13.86 545.54 9.33 541.48 1.54 531.96 -1.69 526.37 -4.6 520.37 -9.4 506.55 -11.37 498.77 -12.66 493.41 -13.83 487.74 -14.87 481.77 -15.96 475.76 -16.93 469.47 -17.76 462.91 -18.63 456.33 -19.34 449.5 -19.87 442.43 -20.4 435.35 -20.72 428.05 -20.81 420.53 -20.87 413.01 -20.69 405.37 -20.28 397.63 -19.84 389.89 -19.18 382.05 -18.31 374.13 -17.45 366.21 -16.42 358.21 -15.23 350.13 -14.09 342.06 -12.81 333.91 -11.43 325.7 -10.09 317.51 -8.64 309.26 -7.07 300.95 -5.53 292.68 -3.84 284.37 -2.01 276.04 -0.14 267.76 1.91 259.47 4.18 251.21 6.54 243.02 9.14 234.89 11.98 226.82 14.93 218.88 18.14 211.05 21.58 203.35 25.12 195.83 28.87 188.49 32.81 181.36 36.78 174.45 40.88 167.8 45.09 161.43 49.24 155.31 53.43 149.51 57.64 144.05 61.7 138.85 65.73 134.01 69.72 129.53 75.37 123.36 86.06 112.99 91.15 108.67 96 104.72 105.72 97.57 110.77 94.1 115.98 90.33 127.55 81.84 134.01 76.91 138.58 73.19 143.42 69.25 148.55 65.08 153.88 60.56 159.49 55.85 165.38 50.98 171.48 45.87 177.83 40.68 184.43 35.47 191.23 30.18 198.24 24.99 205.44 19.98 212.8 15.08 220.33 10.47 227.98 6.22 235.77 2.26 243.66 -1.26 251.63 -4.29 259.7 -6.96 267.81 -9.12 275.96 -10.76 284.17 -12.05 292.39 -12.87 300.61 -13.26 308.87 -13.42 317.11 -13.26 325.3 -12.84 333.54 -12.39 341.72 -11.82 349.84 -11.18 357.99 -10.74 366.07 -10.35 374.07 -10.08 382.09 -10.15 390.03 -10.4 397.87 -10.84 405.71 -11.66 413.46 -12.65 421.08 -13.78" stroke-dasharray="0 0" transform="rotate(0, 400, 400)" opacity="0.99"></path><path d="M405.55 1.94C412.63 0.42 419.47 -1.12 426.06 -2.65 432.63 -4.26 438.94 -5.69 444.97 -6.87 453.83 -8.24 470.01 -8.4 477.31 -6.98 484.23 -4.46 496.48 3.61 501.84 8.95 506.93 14.89 516.02 27.8 520.2 34.37 524.5 40.59 533.51 51.82 538.56 56.66 544.47 60.72 558.99 67.34 567.99 70.07 574.85 71.64 582.37 73.2 590.61 74.82 599.54 76.36 609.21 78.06 619.59 79.96 630.6 81.95 642.25 84.22 654.47 86.82 667.08 89.64 680.07 92.83 693.29 96.42 706.5 100.3 719.65 104.6 732.52 109.3 744.88 114.32 756.59 119.73 767.42 125.51 777.21 131.58 785.76 137.98 792.87 144.67 798.5 151.6 802.44 158.76 804.59 166.12 805.08 173.65 803.75 181.31 800.62 189.09 796.05 196.95 789.94 204.87 782.48 212.82 774.22 220.79 765.16 228.75 755.61 236.7 746.25 244.61 737.13 252.48 728.64 260.3 721.42 268.06 715.54 275.75 711.34 283.38 709.27 290.95 709.34 298.45 711.71 305.9 716.55 313.28 723.7 320.62 733.06 327.92 744.48 335.16 757.59 342.39 772.02 349.6 787.38 356.77 803.13 363.94 818.74 371.14 833.71 378.3 847.45 385.5 859.43 392.73 869.29 399.95 876.55 407.23 880.87 414.56 882.23 421.89 880.38 429.28 875.33 436.74 867.49 444.2 857.04 451.64 844.45 459.04 830.32 466.45 815.11 473.82 799.42 481.13 783.89 488.43 769.02 495.67 755.31 502.82 743.28 509.92 733.24 516.92 725.45 523.77 720.21 530.55 717.49 537.16 717.25 543.56 719.57 549.84 724.06 555.87 730.45 561.61 738.64 567.19 748.01 572.44 758.14 577.32 768.9 581.99 779.57 586.25 789.74 590.08 799.34 593.67 807.71 596.8 814.58 599.45 822.47 604.94 807.16 608.52 793.56 608.54 782.68 608.63 770.7 608.65 757.88 608.71 744.42 609.15 730.6 609.82 716.68 610.84 702.78 612.52 689.18 614.74 676.06 617.64 663.5 621.42 651.68 626.03 640.71 631.56 630.6 638.09 621.45 645.6 613.25 654.09 606.01 663.54 599.7 673.89 594.26 685.06 589.71 696.89 585.89 709.28 582.72 722.05 580.25 734.96 578.24 747.83 576.6 760.42 575.44 772.46 574.45 783.73 573.55 793.96 568.65 816.95 559.42 802.57 555.01 789.93 551.79 780.8 548.15 771.4 544.1 762.14 539.92 753.7 535.35 746.19 530.41 740.01 522.68 734.49 505.47 737.3 496.12 746.03 489.74 754.7 483.13 765.12 476.3 776.95 469.45 789.82 462.4 803.2 455.18 816.53 447.95 829.38 440.55 841.11 433 851.22 425.45 859.38 417.84 865.04 410.18 867.99 402.53 868.33 394.83 865.86 387.09 860.74 379.36 853.32 371.58 843.76 363.76 832.46 355.95 819.95 348.1 806.59 340.21 792.9 332.32 779.38 324.39 766.44 316.43 754.49 308.48 743.93 300.5 735.01 292.5 727.91 284.51 722.88 276.52 719.86 268.52 718.81 260.57 719.8 252.63 722.49 244.74 726.66 236.91 732.25 229.15 738.75 221.47 745.83 213.9 753.41 206.45 760.92 199.14 768.02 191.98 774.71 184.99 780.46 178.21 785.03 171.62 788.52 165.26 790.52 159.16 790.96 153.27 789.99 147.65 787.41 142.32 783.28 137.22 777.78 132.4 770.9 127.88 762.79 123.56 753.64 119.51 743.56 115.73 732.76 112.09 721.36 108.68 709.57 105.48 697.58 102.34 685.46 99.36 673.43 96.51 661.62 93.62 650.07 90.81 638.95 88.04 628.33 85.16 618.21 82.27 608.69 79.36 599.79 76.27 591.5 73.13 583.82 69.94 576.75 66.56 570.26 63.13 564.31 59.66 558.83 54.2 551.55 43.22 539.19 37.84 533.75 32.56 528.79 22.95 519.02 18.73 513.98 14.89 508.86 8.56 497.58 6.04 491.3 3.84 484.72 0.4 470.11 -0.89 462.07 -1.72 456.59 -2.4 450.83 -2.94 444.8 -3.5 438.75 -3.91 432.44 -4.17 425.87 -4.45 419.3 -4.57 412.48 -4.52 405.42 -4.48 398.36 -4.28 391.15 -3.9 383.82 -3.55 376.5 -3.04 369.06 -2.37 361.51 -1.75 353.98 -0.99 346.35 -0.1 338.64 0.74 330.96 1.71 323.2 2.8 315.39 3.86 307.61 5.06 299.8 6.4 291.96 7.75 284.18 9.26 276.39 10.97 268.62 12.74 260.94 14.72 253.29 16.94 245.71 19.27 238.25 21.86 230.88 24.7 223.64 27.67 216.55 30.9 209.62 34.38 202.88 37.96 196.33 41.76 189.99 45.75 183.91 49.77 178.05 53.95 172.45 58.23 167.16 62.46 162.1 66.74 157.35 71.04 152.92 77.28 146.76 89.26 136.25 94.92 131.82 100.18 127.76 110.1 120.53 114.85 117.13 119.41 113.54 128.74 105.7 133.68 101.24 138.82 96.09 150.27 84.17 156.66 77.41 161.16 72.53 165.93 67.5 170.95 62.36 176.15 57.04 181.61 51.7 187.31 46.41 193.2 41.12 199.32 35.98 205.64 31.08 212.14 26.36 218.83 21.98 225.68 17.99 232.68 14.33 239.81 11.14 247.06 8.45 254.43 6.13 261.88 4.34 269.4 3.05 277.01 2.09 284.65 1.58 292.32 1.49 300.05 1.58 307.78 1.98 315.49 2.6 323.24 3.22 330.96 3.93 338.62 4.67 346.32 5.19 353.95 5.63 361.49 5.92 369.05 5.85 376.51 5.58 383.86 5.1 391.22 4.23 398.45 3.17 405.54 1.94" stroke-dasharray="0 0" transform="rotate(0, 400, 400)" opacity="0.94"></path><path d="M389 17.67C395.55 16.05 401.88 14.39 407.97 12.75 416.97 10.22 433.7 6.44 441.43 5.59 448.88 5.65 462.53 8.91 468.78 12.14 474.85 16.39 486.21 27.32 491.65 33.66 495.38 38.02 499.08 42.48 502.8 46.99 506.73 51.35 510.77 55.65 514.97 59.82 519.48 63.71 524.25 67.41 529.33 70.9 534.84 74.02 540.74 76.92 547.11 79.59 553.99 81.91 561.4 84.05 569.37 86.03 577.88 87.74 586.99 89.37 596.69 90.97 606.89 92.41 617.64 93.92 628.89 95.54 640.48 97.15 652.45 98.97 664.69 101.02 677 103.19 689.35 105.68 701.61 108.49 713.55 111.53 725.1 114.94 736.08 118.72 746.3 122.78 755.64 127.23 763.91 132.04 771.02 137.14 776.8 142.6 781.12 148.38 784.04 154.41 785.36 160.74 785.04 167.33 783.33 174.12 780.07 181.13 775.34 188.31 769.56 195.64 762.63 203.11 754.77 210.67 746.53 218.32 737.89 226.04 729.16 233.79 720.94 241.58 713.27 249.38 706.48 257.17 701.11 264.96 697.18 272.73 694.95 280.45 694.78 288.16 696.63 295.82 700.59 303.43 706.75 311.01 714.93 318.54 724.99 326.02 736.75 333.47 749.88 340.88 764.02 348.24 778.79 355.59 793.72 362.89 808.32 370.17 822.19 377.43 834.79 384.67 845.68 391.9 854.56 399.11 861.01 406.31 864.74 413.5 865.77 420.69 863.86 427.87 859.04 435.03 851.67 442.19 841.91 449.25 830.16 456.19 816.96 463.13 802.69 469.95 787.89 476.63 773.11 483.3 758.79 489.81 745.4 496.15 733.4 502.45 723.08 508.55 714.71 514.44 706.62 523.04 705.19 538.78 711.27 545.8 717.77 550.25 725.58 554.35 734.34 558.08 743.97 561.66 753.84 564.86 763.57 567.67 773.1 570.34 781.83 572.63 789.46 574.53 800.02 580.89 775.02 585.86 759.55 587.98 747.98 590 735.74 592.42 723.05 595.35 710.03 598.98 696.94 603.26 683.96 608.26 671.17 614.09 658.79 620.73 646.94 628.2 635.63 636.5 625.03 645.62 615.19 655.5 606.09 666.06 597.79 677.23 590.29 688.9 583.56 700.89 577.59 713.08 572.29 725.29 567.7 737.3 563.68 748.94 560.16 759.99 557.19 770.24 554.57 779.49 552.23 787.53 543.03 799.59 532.99 778.91 529.13 766.37 526.4 757.74 523.34 749.14 519.93 740.92 514.53 730.59 501.89 719.14 494.69 719.39 489.72 722.4 484.45 727.44 478.88 734.41 473.26 743.24 467.38 753.56 461.23 765.06 455.06 777.43 448.64 790.15 441.99 802.77 435.33 814.88 428.46 825.94 421.38 835.49 414.3 843.27 407.1 848.75 399.81 851.77 392.53 852.41 385.15 850.48 377.7 846.09 370.26 839.55 362.74 830.99 355.17 820.72 347.61 809.21 339.99 796.77 332.32 783.84 324.68 770.87 317 758.23 309.29 746.29 301.62 735.44 293.93 725.91 286.23 717.92 278.6 711.7 270.97 707.27 263.38 704.64 255.87 703.9 248.41 704.83 241.03 707.26 233.76 711.19 226.59 716.18 219.54 721.97 212.64 728.53 205.89 735.34 199.32 742.09 192.93 748.8 186.73 754.95 180.77 760.3 172.24 766.67 156.76 771.51 149.85 769.57 145.52 766.56 141.46 762.19 137.66 756.55 134.01 749.82 130.59 742.01 127.4 733.29 124.28 723.79 121.34 713.65 118.56 703.02 115.77 691.99 113.09 680.75 110.48 669.44 107.79 658.09 105.12 646.88 102.45 635.91 99.63 625.18 96.76 614.84 93.85 604.93 90.73 595.42 87.54 586.41 84.29 577.91 80.83 569.87 77.31 562.33 73.75 555.26 70.02 548.65 66.29 542.45 62.58 536.63 58.77 531.2 55.03 526.07 51.39 521.17 45.99 514.37 36.16 501.7 31.84 495.59 27.94 489.63 21.61 477.36 19.17 470.91 17.11 464.31 14.18 450.1 13.23 442.43 12.46 434.52 11.65 417.5 11.57 408.4 11.51 402.25 11.58 395.87 11.77 389.27 11.89 382.67 12.13 375.94 12.48 369.08 12.76 362.24 13.15 355.29 13.64 348.25 14.05 341.23 14.58 334.12 15.2 326.96 15.77 319.83 16.46 312.66 17.27 305.45 18.05 298.3 18.99 291.14 20.08 283.99 21.2 276.92 22.51 269.88 24.03 262.9 25.64 256.01 27.49 249.22 29.59 242.53 31.83 235.97 34.34 229.55 37.12 223.3 40.06 217.19 43.26 211.28 46.71 205.59 50.3 200.08 54.11 194.8 58.12 189.78 62.2 184.95 66.42 180.39 70.77 176.11 77.29 170.09 90.37 159.67 96.77 155.2 102.83 151.07 114.24 143.72 119.56 140.31 124.48 136.77 133.8 129.29 138.3 125.14 142.67 120.38 151.73 109.38 156.56 103.09 159.86 98.5 163.35 93.72 167.03 88.78 170.8 83.59 174.8 78.31 179.02 72.97 183.38 67.54 187.97 62.15 192.79 56.87 197.76 51.67 202.96 46.69 208.37 41.99 213.93 37.53 219.69 33.45 225.63 29.81 231.72 26.51 237.97 23.7 244.35 21.39 250.86 19.47 257.48 18.05 264.2 17.12 271.02 16.5 277.91 16.3 284.84 16.49 291.86 16.83 298.89 17.43 305.94 18.23 313.04 18.99 320.12 19.81 327.17 20.62 334.26 21.2 341.3 21.65 348.26 21.95 355.25 21.87 362.15 21.57 368.95 21.04 375.75 20.11 382.44 18.98 388.99 17.67" stroke-dasharray="0 0" transform="rotate(0, 400, 400)" opacity="0.35"></path><path d="M374.45 33.39C380.52 31.7 386.41 29.95 392.12 28.2 400.58 25.49 416.56 21.25 424.09 20.1 431.45 19.82 445.43 22.36 452.12 25.22 458.8 29.14 472.04 39.55 478.77 45.76 483.43 50.09 488.19 54.57 493.1 59.15 498.24 63.64 503.6 68.12 509.21 72.51 515.14 76.68 521.39 80.69 528.01 84.51 535 88 542.42 91.27 550.28 94.31 558.55 97 567.29 99.47 576.51 101.75 586.1 103.72 596.14 105.56 606.6 107.29 617.33 108.81 628.39 110.31 639.71 111.83 651.1 113.26 662.59 114.79 674.07 116.47 685.34 118.19 696.38 120.13 707.03 122.31 717.14 124.64 726.62 127.28 735.31 130.23 743.12 133.4 749.9 136.92 755.52 140.77 761.58 147.11 764.98 161.85 762.23 170.16 758.83 176.03 754.19 182.16 748.43 188.51 741.99 195.06 734.79 201.79 727.05 208.67 719.29 215.7 711.48 222.86 703.92 230.1 697.11 237.44 691.07 244.85 686.09 252.29 682.58 259.79 680.56 267.31 680.21 274.82 681.79 282.37 685.22 289.89 690.55 297.38 697.79 304.89 706.77 312.35 717.31 319.77 729.23 327.19 742.21 334.55 755.91 341.86 770 349.17 784.05 356.42 797.64 363.61 810.41 370.8 821.91 377.93 831.74 385 839.69 392.07 845.37 399.08 848.56 406.01 849.29 412.95 847.34 419.82 842.74 426.6 835.83 433.39 826.73 440.01 815.8 446.45 803.49 452.89 790.15 459.14 776.23 465.2 762.22 471.23 748.51 477.05 735.51 482.65 723.64 488.21 713.17 493.53 704.36 498.59 695.03 505.97 689.63 519.17 693.27 524.96 698.09 528.63 704.29 531.98 711.58 535.02 719.91 537.98 728.72 540.62 737.7 542.97 746.81 545.27 755.48 547.3 763.43 549.09 782.21 557.75 769.55 568.45 757.72 573.08 748.4 576.85 738.17 581.13 727.23 585.98 715.7 591.5 703.79 597.66 691.66 604.51 679.4 612.05 667.22 620.29 655.25 629.2 643.53 638.72 632.22 648.83 621.42 659.46 611.11 670.45 601.41 681.77 592.35 693.27 583.9 704.76 576.11 716.14 568.95 727.24 562.42 737.86 556.48 747.85 551.08 757.02 546.23 765.24 541.83 772.33 537.81 778.12 528.15 785.2 516.08 775.51 512.29 766.19 509.83 759.01 507.22 751.22 504.42 743.09 501.66 735.18 498.67 727.53 495.43 720.45 490.42 712.04 478.98 704.43 472.52 706.27 468.08 710.06 463.36 715.66 458.35 722.95 453.32 731.84 448.01 742.01 442.44 753.14 436.84 764.98 430.99 777.05 424.9 788.95 418.79 800.35 412.45 810.76 405.89 819.77 399.32 827.16 392.62 832.47 385.8 835.53 378.99 836.43 372.07 834.99 365.06 831.29 358.06 825.59 350.98 817.97 343.83 808.71 336.72 798.21 329.54 786.71 322.32 774.6 315.15 762.28 307.94 750.06 300.72 738.3 293.56 727.34 286.41 717.41 279.28 708.74 272.22 701.56 265.21 695.92 258.27 691.89 251.43 689.58 244.67 688.84 238.02 689.56 231.51 691.78 225.12 695.16 218.89 699.49 212.82 704.77 206.92 710.54 201.23 716.56 195.7 722.84 190.39 728.9 185.32 734.51 178.09 741.96 165.12 751.01 159.38 751.99 154.08 750.16 144.69 738.82 140.51 729.67 137.79 722.37 135.19 714.25 132.7 705.45 130.13 696.07 127.62 686.23 125.13 676.06 122.51 665.62 119.86 655.06 117.18 644.48 114.3 633.89 111.36 623.45 108.35 613.23 105.11 603.2 101.8 593.48 98.4 584.12 94.81 575.07 91.15 566.41 87.45 558.15 83.6 550.25 79.74 542.73 75.91 535.58 72 528.77 68.16 522.29 64.44 516.11 60.72 510.22 57.16 504.58 53.79 499.13 48.98 491.37 40.77 476.66 37.43 469.52 34.6 462.53 30.47 448.38 29.12 441.09 28.12 433.73 27.15 418.28 27.08 410.15 27.11 401.85 27.63 384.36 28.06 375.18 28.27 369 28.54 362.73 28.88 356.37 29.1 350.03 29.39 343.62 29.74 337.16 29.98 330.71 30.29 324.22 30.69 317.72 31.01 311.24 31.44 304.77 31.98 298.3 32.49 291.89 33.16 285.51 33.99 279.19 34.87 272.94 35.95 266.76 37.24 260.69 38.65 254.71 40.31 248.86 42.24 243.15 44.33 237.56 46.69 232.13 49.35 226.89 53.73 219.34 64.08 205.52 69.96 199.31 76.16 193.54 89.33 183.36 96.11 178.92 102.79 174.76 115.83 167.27 122.07 163.8 127.91 160.23 138.78 152.85 143.83 148.85 148.51 144.32 157.42 133.98 161.77 128.08 166.02 121.5 174.87 106.98 179.59 99.17 182.81 93.76 186.2 88.32 189.77 82.9 193.41 77.46 197.25 72.13 201.29 66.98 205.43 61.97 209.78 57.24 214.33 52.84 218.99 48.72 223.85 45.02 228.89 41.78 236.72 37.7 253.33 32.58 262.04 31.5 267.98 31.21 274.02 31.31 280.14 31.75 286.33 32.31 292.58 33.09 298.87 34.04 305.21 34.9 311.57 35.8 317.93 36.66 324.33 37.26 330.7 37.72 337.04 38 343.4 37.89 349.71 37.55 355.95 36.97 362.2 35.98 368.37 34.78 374.44 33.4" stroke-dasharray="0 0" transform="rotate(0, 400, 400)" opacity="0.72"></path><path d="M364.51 49.12C372.97 46.45 389.34 40.83 397.26 38.3 405.08 36.16 420.29 34.13 427.75 34.49 435.23 35.91 450.25 41.88 457.91 46.33 463.16 49.75 468.51 53.52 473.99 57.61 479.65 61.85 485.49 66.29 491.55 70.87 504.35 79.92 518.3 88.88 533.59 97.4 550.06 104.76 568 111.29 587.33 116.95 607.46 121.3 628.47 125.05 649.81 128.45 670.57 131.18 690.34 134.17 708.18 137.67 723.32 141.38 734.93 146.1 742.2 151.94 745.27 158.54 743.46 166.41 736.86 175.47 727.14 185.4 714.37 196.39 699.97 208.23 686.67 220.74 675.25 233.86 667.59 247.38 665.92 254.29 665.71 261.26 667.08 268.27 670.21 275.35 675.01 282.45 681.47 289.54 689.56 296.68 699.11 303.8 709.92 310.9 721.82 318.02 734.5 325.1 747.65 332.12 760.98 339.17 774.11 346.16 786.67 353.07 798.36 360 808.78 366.85 817.61 373.61 824.68 380.39 829.66 387.07 832.34 393.65 832.8 400.24 830.82 406.72 826.45 413.08 819.98 419.44 811.52 425.6 801.36 431.56 789.93 437.5 777.49 443.23 764.44 448.73 751.22 454.22 738.15 459.47 725.6 464.48 713.96 469.46 703.46 474.19 694.35 478.66 679.57 491.02 681.99 506.85 690.03 511.2 696.93 514.03 704.51 516.64 712.49 519.06 729.37 524.08 744.75 528.63 756.86 533.05 765.32 538.35 768.28 544.2 765.54 551.07 757.78 559.72 744.96 570.11 728.12 582.58 708.28 597.33 686.46 614.3 663.87 633.34 641.13 653.83 619.31 675.32 599.02 696.89 580.35 717.4 563.77 735.87 549.27 751.01 536.68 762.12 525.84 768.18 516.37 768.65 508.26 764.37 500.89 755.2 493.86 742.22 490.59 735.15 487.31 727.77 483.98 720.31 480.74 713.28 477.39 706.71 473.91 700.84 468.68 694.35 457.31 690.36 451.11 693.59 446.9 698.06 442.46 704.1 437.79 711.61 433.1 720.5 428.18 730.44 423.03 741.18 417.87 752.46 412.47 763.89 406.85 775.09 401.23 785.79 395.39 795.56 389.33 804.04 383.28 811.05 377.1 816.18 370.81 819.26 364.53 820.4 358.15 819.41 351.68 816.33 345.24 811.42 338.72 804.7 332.15 796.42 325.62 786.91 319.05 776.37 312.45 765.12 305.9 753.52 299.35 741.85 292.81 730.41 286.34 719.52 279.9 709.39 273.51 700.25 267.22 692.34 260.99 685.72 254.86 680.49 248.83 676.79 242.92 674.52 237.15 673.63 225.97 676.1 215.45 682.72 205.73 691.98 196.59 703.23 188.3 713.98 180.92 722.78 174.01 729.45 167.88 732.22 162.49 730.76 157.16 725.62 152.26 716.39 147.62 703.69 142.51 688.3 137.31 670.76 131.9 651.93 125.65 632.27 119.03 612.56 112.06 593.37 104.34 574.71 96.48 557.13 88.66 540.77 80.64 525.4 73.09 511.21 66.25 498.04 62.98 491.78 59.95 485.71 57.19 479.81 53.42 471.27 47.58 454.92 45.51 446.97 43.94 439.16 42.22 423.52 41.98 415.62 41.98 407.68 42.66 391.39 43.23 383.01 43.74 374.52 44.8 357.08 45.28 348.28 45.47 342.41 45.68 336.52 45.91 330.64 46.08 321.85 46.54 304.42 46.93 295.85 47.39 287.42 49.2 271.09 50.66 263.26 52.55 255.7 57.92 241.49 61.47 234.92 66.97 226.54 73.62 218.98 81.3 212.27 89.44 205.81 98.27 200.1 107.53 195.05 116.61 189.89 125.7 185.08 134.61 180.42 142.79 175.09 150.6 169.48 158.01 163.41 164.55 156.19 170.81 148.25 176.91 139.54 182.41 129.73 188.04 119.35 193.94 108.63 199.67 97.57 205.94 86.84 212.8 76.87 219.82 67.68 227.57 59.95 236.01 54 242.58 50.6 256.66 46.75 264.12 46.2 271.81 46.41 287.83 48.48 296.09 50 304.49 51.42 321.54 53.59 330.14 54.05 338.77 53.71 355.97 51.21 364.5 49.12" stroke-dasharray="0 0" transform="rotate(0, 400, 400)" opacity="0.92"></path><path d="M361 64.85C369.06 62.09 385.04 56.25 392.97 53.54 403.57 50.36 414.16 48.6 424.83 48.57 435.73 49.96 446.92 53.38 458.56 58.71 470.69 65.3 483.55 73.27 497.31 82.2 511.81 91.3 527.41 100.52 544.15 109.5 561.61 117.55 580.1 124.88 599.36 131.38 618.72 136.58 638.17 141.05 657.1 144.99 674.77 148.03 690.72 151.01 704.12 154.19 718.07 159.08 720.89 173.57 709.76 183.81 699.19 191.72 686.83 200.68 674.06 210.56 663.3 221.1 655.14 232.38 651.05 244.23 652.67 256.53 660.02 269.2 673.23 282.05 691.87 295.17 714.48 308.32 739.2 321.36 763.93 334.54 786.12 347.51 803.3 360.16 809.54 366.51 813.85 372.77 816.08 378.92 816.29 385.08 814.31 391.13 810.15 397.05 804.12 402.97 796.26 408.69 786.86 414.21 776.26 419.71 764.7 425.01 752.51 430.09 727.75 440.2 704.37 449.43 684.63 457.77 670.43 466.06 662.49 473.5 660.91 480.16 665.78 486.91 675.43 493.08 688.23 498.87 703.38 505.12 718.17 511.4 730.94 518.03 741.31 525.75 747.32 534.39 748.48 544.31 745.27 555.9 737.19 569.19 724.92 584.31 709.32 601.1 691.02 619.5 671.05 639.13 650.04 659.25 628.92 679.38 608.43 698.61 588.7 716.01 570.39 730.69 553.7 741.67 538.47 748.65 524.85 750.87 512.67 748.13 501.77 741.59 491.89 731.25 482.74 718.25 474.36 705.04 466.24 692.4 458.12 682.14 450.32 676.53 442.21 676.03 433.63 681.35 425.12 692.83 416 709.26 406.2 729.16 401.3 739.88 396.22 750.65 390.97 761.17 385.72 771.2 380.3 780.34 374.71 788.31 369.12 794.96 363.44 799.88 357.69 802.98 351.94 804.32 346.12 803.72 340.26 801.23 328.58 791.3 316.78 775.38 304.97 755.37 293.37 733.58 281.9 711.91 270.72 692.35 259.86 676.62 249.43 665.54 239.57 659.47 230.14 658.73 221.38 662.22 213.39 668.81 205.82 678.07 199.01 687.85 192.97 696.81 184.53 707.34 169.94 707.93 162.94 697.01 157.65 685.83 152.14 672.04 146.29 656.36 139.58 639.27 132.49 621.38 125.06 603.26 116.98 585.02 108.82 567.26 100.78 550.26 92.67 533.79 85.11 518.27 78.34 503.68 72.1 489.73 66.95 476.58 63 464.1 59.79 452.07 57.76 440.46 56.83 429.16 56.35 418.06 56.65 407.06 57.61 396.08 58.29 387.87 59.87 371.35 60.65 363.04 61.18 354.73 61.93 338.33 62.14 330.27 61.96 319.59 61.92 309.2 62.12 299.19 62.17 289.29 62.86 279.88 64.34 271.05 66.29 262.41 69.36 254.42 73.6 247.14 78.65 240.04 84.89 233.64 92.23 227.91 100.16 222.17 108.87 216.93 118.14 212.07 127.4 206.83 136.8 201.65 146.14 196.35 154.88 190.21 163.31 183.61 171.35 176.42 178.56 168.13 185.4 159.15 191.96 149.51 197.81 139.02 203.59 128.18 209.43 117.29 214.9 106.37 220.67 96.04 226.86 86.71 232.98 78.34 239.68 71.55 246.96 66.58 254.36 63.02 262.38 61.29 270.98 61.25 279.73 62.03 289.01 63.79 298.72 66.12 308.53 67.92 318.69 69.36 329.11 70.11 336.97 69.69 352.92 67.02 360.99 64.85" stroke-dasharray="0 0" transform="rotate(0, 400, 400)" opacity="0.40"></path><path d="M364.53 80.58C374.94 76.62 385.51 72.57 396.26 68.88 407.07 65.45 418.18 63.32 429.63 62.82 441.31 63.65 453.52 66.44 466.34 71.13 479.57 77.14 493.6 84.62 508.47 93.21 523.83 102.19 540.07 111.51 557.09 120.81 574.37 129.42 592.13 137.47 610.02 144.81 627.44 150.93 644.25 156.29 659.86 161 673.78 164.68 685.52 168.04 694.43 171.32 701.9 175.75 694.93 187.34 681.83 195.33 671.43 201.44 660.34 208.52 649.83 216.5 641.98 225.04 637.15 234.38 636.49 244.37 641.14 254.82 650.92 265.76 665.69 277.02 684.87 288.59 707.04 300.33 730.48 312.1 753.38 324.02 773.51 335.86 788.8 347.49 798.1 359.18 799.94 370.57 793.86 381.58 781.08 392.59 762.56 402.91 740.44 412.51 717.18 422.09 694.74 430.98 675.15 439.21 660.15 447.48 650.51 455.19 646.53 462.46 648.47 469.98 655.11 477.3 665.2 484.64 678.18 492.6 691.73 500.97 704.35 510.02 715.71 520.15 723.83 531.37 728.05 543.89 728.7 557.76 724.96 573.07 717.15 589.76 706 607.43 691.75 625.99 675.21 644.94 657 663.55 637.84 681.34 618.45 697.45 599.04 711.25 580.32 721.97 562.63 728.89 545.82 732.13 530.31 731.1 516.08 725.88 502.88 717.84 490.78 707.02 479.59 694.59 469.17 682.8 459.31 672.24 449.81 664.41 440.71 661.16 431.67 662.71 422.54 669.49 413.55 681.64 404.28 697.96 394.67 717.08 385.07 737.43 375.07 756.66 364.66 772.58 354.25 783.77 343.71 788.34 333.12 785.98 322.6 777.55 312.11 763.47 301.78 745.32 291.61 725.07 281.7 704.33 272.19 684.88 262.92 668.32 254.15 655.52 245.97 647.04 238.1 643.35 230.86 643.76 224.31 647.46 217.99 654.26 212.29 662.36 207.18 670.6 199.68 682.05 185.57 690.36 178.17 685.15 172.46 678.1 166.42 668.3 160 656.26 152.74 642.5 145.13 627.36 137.24 611.39 128.82 594.77 120.43 578.02 112.26 561.51 104.17 545.09 96.72 529.23 90.14 514.08 84.19 499.29 79.38 485.22 75.81 471.85 73.04 458.82 71.45 446.35 70.98 434.38 70.95 422.6 71.7 411.16 73.05 400.01 74.2 388.92 75.55 378.03 76.94 367.31 77.6 356.6 78.1 346.3 78.43 336.44 78.06 326.58 77.72 317.19 77.55 308.31 77.18 299.48 77.38 291.22 78.33 283.56 79.72 275.96 82.2 268.98 85.86 262.63 90.33 256.25 96.04 250.4 102.89 245.03 110.44 239.41 118.87 234.06 127.99 228.83 137.27 223.02 146.84 217.05 156.49 210.76 165.73 203.58 174.75 195.85 183.45 187.52 191.41 178.22 198.99 168.35 206.23 158 212.72 147.09 219 136.11 225.18 125.34 230.83 114.84 236.6 105.17 242.6 96.68 248.34 89.3 254.48 83.55 261.08 79.6 267.63 76.98 274.71 76.06 282.34 76.66 289.99 77.89 298.19 79.93 306.9 82.38 315.63 84.18 324.83 85.54 334.46 86.17 344.09 85.26 354.12 83.36 364.52 80.58" stroke-dasharray="0 0" transform="rotate(0, 400, 400)" opacity="0.71"></path><path d="M374.48 96.3C384.68 92.29 395.25 88.15 406.19 84.32 417.21 80.67 428.7 78.21 440.7 77.24 452.88 77.52 465.68 79.67 479.12 83.67 492.83 89 507.24 95.88 522.31 103.99 537.58 112.67 553.39 121.91 569.55 131.34 585.56 140.36 601.51 149 617.01 157.08 631.61 164.12 645.08 170.43 656.88 176.05 675.91 187.87 667.45 203.31 653.98 209.74 644.63 214.49 635.49 220.04 627.68 226.39 622.9 233.13 621.35 240.65 623.83 248.86 631.11 257.44 642.85 266.6 658.72 276.21 678.04 286.08 699.48 296.27 721.48 306.64 742.5 317.16 760.63 327.75 774.13 338.3 782.14 348.89 783.41 359.37 777.57 369.64 765.74 379.91 748.69 389.71 728.23 399.03 706.49 408.36 685.1 417.26 665.86 425.79 650.36 434.42 639.36 442.83 633.29 451.14 632.56 459.76 636.3 468.54 643.59 477.64 654.1 487.38 665.89 497.77 677.65 508.98 689.13 521.11 698.44 534.3 704.81 548.6 708.5 563.83 708.43 580.07 704.66 597.12 697.84 614.48 687.79 632.03 675.13 649.21 660.43 665.4 644.16 680.13 626.97 692.68 609.12 702.71 591.25 709.57 573.78 712.8 556.62 712.85 540.3 709.27 524.94 702.33 510.28 693.51 496.6 682.87 483.84 671.52 471.71 661.45 460.3 653.1 449.48 647.67 439.06 646.63 428.98 650 419.13 657.99 409.46 670.59 399.83 686.67 390.17 704.93 380.56 724.06 370.84 742 361 756.86 351.16 767.47 341.43 772.15 331.87 770.6 322.35 763.55 313.04 751.23 304.04 734.93 295.14 716.33 286.62 696.73 278.56 677.72 270.65 660.75 263.26 646.71 256.45 636.25 246.73 628.7 230.11 635.25 222.94 644.97 218.06 652.55 213.38 659.27 208.78 664.43 203.63 668.3 198.34 669.66 192.79 668.37 186.48 664.98 179.79 658.97 172.71 650.65 164.89 640.56 156.78 628.72 148.49 615.61 139.83 601.51 131.31 586.77 123.15 571.76 115.2 556.47 108 541.31 101.74 526.51 96.21 511.81 91.84 497.61 88.74 483.99 86.46 470.57 85.35 457.7 85.34 445.39 85.75 433.23 86.91 421.53 88.61 410.28 90.08 399.1 91.67 388.28 93.23 377.85 94 367.42 94.52 357.57 94.78 348.3 94.26 339.02 93.7 330.31 93.22 322.18 92.47 314.03 92.23 306.46 92.66 299.47 93.48 292.42 95.35 285.9 98.35 279.86 102.16 273.64 107.21 267.77 113.43 262.17 120.43 256.16 128.41 250.2 137.18 244.16 146.3 237.45 155.85 230.43 165.63 222.99 175.21 214.7 184.7 205.88 194 196.52 202.69 186.42 211.05 175.91 219.07 165.17 226.37 154.18 233.39 143.37 240.21 133.04 246.43 123.24 252.61 114.46 258.86 107 264.72 100.72 270.81 96.06 277.22 93.14 283.43 91.44 290.07 91.27 297.18 92.42 304.21 94.03 311.76 96.27 319.83 98.75 327.87 100.5 336.45 101.74 345.56 102.22 354.64 101.18 364.28 99.17 374.47 96.31" stroke-dasharray="0 0" transform="rotate(0, 400, 400)" opacity="0.56"></path><path d="M389.05 112.03C399.13 107.98 409.68 103.79 420.69 99.85 431.77 96.02 443.39 93.26 455.52 91.87 467.78 91.6 480.62 93.1 493.98 96.37 507.46 100.97 521.43 107.15 535.76 114.63 550.05 122.85 564.49 131.81 578.83 141.18 592.71 150.38 606.06 159.44 618.5 168.12 629.83 175.97 639.69 183.19 647.65 189.76 655.8 197.8 656.87 210.36 649.92 215.74 643.47 218.94 635.63 222.44 627.12 226.36 616.15 232.52 606.97 248.3 613 258.03 622.45 264.97 635.66 272.53 652.16 280.61 671.25 288.88 691.71 297.58 712.14 306.61 731.27 315.75 747.46 325.13 759.28 334.64 766.11 344.2 766.86 353.84 761.27 363.51 750.36 373.17 734.72 382.63 715.87 391.88 695.64 401.16 675.4 410.31 656.7 419.37 640.97 428.58 628.94 437.85 621.13 447.3 618.03 457.08 619.06 467.25 623.59 477.94 631.47 489.17 641.12 501.13 651.44 513.88 662.28 527.3 671.89 541.56 679.49 556.63 685.29 572.13 688.08 588.16 687.71 604.42 684.74 620.42 678.7 635.96 669.97 650.53 659.12 663.7 646.31 674.99 632.08 683.86 616.76 690.26 600.8 693.63 584.67 693.73 568.35 691.27 552.35 685.89 536.91 678.01 521.79 669.09 507.39 659.19 493.78 649.31 480.59 641.18 468.12 635.08 456.32 631.94 444.86 632.91 433.9 637.85 423.39 646.81 413.05 659.66 403 675.35 393.2 692.71 383.45 710.62 373.85 727.3 364.39 741.13 354.93 751.18 345.82 755.92 337.06 755.09 328.31 749.31 319.93 738.66 311.98 724.17 304.06 707.27 296.6 689 289.64 670.72 282.72 653.75 276.31 638.93 270.41 626.95 261.78 615.9 246.46 614.26 239.37 620.73 234.33 626.89 229.32 633.01 224.24 638.37 218.52 643.23 212.57 646.33 206.29 647.39 199.28 646.92 191.9 644.16 184.18 639.23 175.85 632.69 167.34 624.29 158.77 614.37 150.01 603.32 141.53 591.24 133.52 578.48 125.87 565.17 119.06 551.6 113.26 538.01 108.24 524.27 104.42 510.75 101.85 497.59 100.1 484.48 99.49 471.79 99.93 459.58 100.76 447.46 102.28 435.81 104.3 424.64 106.03 413.52 107.83 402.84 109.53 392.63 110.4 382.41 110.94 372.86 111.16 363.93 110.56 354.97 109.83 346.61 109.11 338.83 108.05 330.98 107.41 323.65 107.37 316.82 107.64 309.83 108.87 303.25 111.19 297 114.26 290.45 118.56 284.09 124.04 277.8 130.34 271.03 137.68 264.15 145.91 257.05 154.64 249.28 163.94 241.14 173.63 232.57 183.32 223.29 193.1 213.57 202.8 203.45 212.1 192.85 221.15 182.07 229.92 171.3 238.09 160.57 245.96 150.28 253.58 140.7 260.6 131.84 267.49 124.14 274.31 117.84 280.69 112.72 287.15 109.18 293.8 107.27 300.15 106.42 306.81 106.91 313.85 108.53 320.72 110.42 328.04 112.77 335.87 115.23 343.59 116.87 351.87 117.95 360.73 118.25 369.54 117.08 378.96 114.97 389.04 112.03" stroke-dasharray="0 0" transform="rotate(0, 400, 400)" opacity="0.15"></path><path d="M405.6 127.76C415.57 123.7 426 119.49 436.86 115.48 447.77 111.51 459.16 108.49 470.97 106.7 482.84 105.92 495.11 106.77 507.72 109.31 520.29 113.13 533.08 118.51 545.9 125.26 558.48 132.86 570.84 141.35 582.71 150.44 593.94 159.6 604.29 168.83 613.44 177.91 621.45 186.39 627.83 194.4 632.33 201.86 635.77 211.41 630.17 226.71 621.98 233.02 615.7 236.62 608.83 240.29 602.01 244.15 594.63 249.79 594.08 263.3 603.82 271.46 614.96 277.18 629.15 283.49 645.86 290.34 664.39 297.29 683.66 304.74 702.44 312.63 719.68 320.58 734.01 328.91 744.26 337.55 750 346.22 750.31 355.16 744.98 364.36 734.94 373.56 720.64 382.8 703.35 392.1 684.64 401.43 665.61 410.89 647.61 420.51 631.91 430.27 619.18 440.32 609.98 450.73 604.85 461.43 603.43 472.64 605.32 484.4 610.53 496.56 617.79 509.37 626.25 522.82 635.82 536.62 644.95 550.97 652.91 565.72 659.88 580.48 664.62 595.27 666.84 609.75 667.02 623.54 664.49 636.4 659.42 647.86 652.36 657.73 643.19 665.54 632.31 670.9 620.12 674.05 606.85 674.48 592.91 672.16 578.42 667.94 563.76 661.53 549.23 653.41 534.68 645 520.51 636.29 506.87 628.17 493.44 622.1 480.59 618.21 468.36 617.21 456.35 619.96 444.88 626.21 433.95 635.89 423.17 648.82 412.82 664 402.88 680.42 392.99 697.11 383.44 712.56 374.22 725.4 365 734.88 356.29 739.65 348.08 739.44 339.84 734.83 332.09 725.75 324.84 713.03 317.56 697.85 310.76 681.04 304.46 663.75 298.1 647.14 292.2 631.97 286.73 618.96 281.11 608.75 275.85 601.4 270.87 596.88 265.61 595.35 260.49 596.09 255.44 598.53 249.91 602.73 244.28 607.49 238.47 612.19 232.03 617.06 225.29 620.9 218.24 623.34 210.53 624.85 202.52 624.53 194.26 622.36 185.56 618.9 176.8 613.66 168.13 606.85 159.46 598.95 151.18 589.8 143.5 579.69 136.31 568.9 130.03 557.51 124.8 545.76 120.4 533.7 117.18 521.55 115.2 509.48 114 497.33 113.89 485.39 114.77 473.77 115.99 462.15 117.82 450.9 120.09 440.05 122.04 429.24 124.01 418.81 125.82 408.82 126.78 398.82 127.37 389.45 127.58 380.67 126.94 371.85 126.1 363.57 125.21 355.79 123.91 347.9 122.94 340.44 122.47 333.35 122.23 326.06 122.85 319.02 124.47 312.16 126.78 304.96 130.27 297.8 134.9 290.57 140.37 282.86 146.92 274.95 154.42 266.75 162.53 257.98 171.35 248.86 180.69 239.37 190.23 229.36 200.01 219.06 209.88 208.56 219.54 197.84 229.1 187.18 238.47 176.78 247.39 166.67 256.06 157.21 264.49 148.65 272.39 140.93 280.11 134.45 287.7 129.38 294.84 125.45 301.96 123 309.15 122.02 316 121.93 323.04 122.99 330.35 124.97 337.44 127.05 344.89 129.42 352.77 131.78 360.52 133.26 368.76 134.15 377.55 134.26 386.28 132.96 395.61 130.75 405.59 127.76" stroke-dasharray="0 0" transform="rotate(0, 400, 400)" opacity="0.81"></path><path d="M421.13 143.49C430.93 139.45 441.07 135.24 451.53 131.19 462.01 127.13 472.8 123.89 483.84 121.76 494.87 120.49 506.08 120.73 517.36 122.54 528.51 125.54 539.57 130.08 550.36 136 560.77 142.84 570.67 150.68 579.8 159.27 588.23 168.16 595.57 177.32 601.6 186.53 606.59 195.4 610.01 203.98 611.71 212.17 612.28 219.63 611.13 226.59 608.32 233.06 604.79 238.74 600.06 244.03 594.47 249.01 586.56 255.5 575.83 267.79 576.18 274.18 580.03 278.36 586.64 282.96 596.1 288.01 608.44 293.02 623.15 298.54 639.67 304.58 657.37 310.62 675.28 317.18 692.34 324.23 707.73 331.29 720.29 338.82 729.07 346.8 733.83 354.78 733.75 363.19 728.69 372.03 719.48 380.88 706.46 389.97 690.68 399.3 673.47 408.68 655.71 418.36 638.56 428.36 623.11 438.48 609.99 449.01 599.74 459.97 592.93 471.13 589.36 482.79 588.83 494.94 591.43 507.29 596.22 520.13 602.52 533.35 610.34 546.62 618.36 560.1 625.91 573.57 633.18 586.7 638.94 599.44 642.86 611.46 645.36 622.52 645.61 632.34 643.64 640.54 639.99 647.16 634.27 651.73 626.76 654.03 617.92 654.51 607.72 652.7 596.52 648.71 584.54 643.5 572 636.78 559.19 629.06 546.09 621.63 533.02 614.47 520.17 608.28 507.32 604.3 494.82 602.52 482.78 603.45 470.84 607.73 459.37 615.04 448.39 625.21 437.52 638.03 427.11 652.61 417.16 668.04 407.27 683.54 397.78 697.8 388.72 709.67 379.66 718.59 371.18 723.34 363.27 723.68 355.31 720.13 347.89 712.51 340.97 701.48 333.98 688.03 327.46 672.77 321.38 656.68 315.17 640.75 309.34 625.65 303.83 612.06 298.1 600.62 292.59 591.5 287.24 584.8 281.52 580.77 275.84 578.92 270.1 578.9 263.86 580.81 257.45 583.69 250.81 587.04 243.6 591.08 236.1 594.71 228.33 597.56 220.04 600.06 211.55 601.25 202.93 601 194.05 599.88 185.26 597.21 176.7 593.08 168.31 588.03 160.43 581.7 153.26 574.27 146.68 566.15 141.05 557.2 136.51 547.65 132.79 537.69 130.23 527.36 128.86 516.84 128.21 506.15 128.58 495.42 129.86 484.78 131.42 474.1 133.53 463.59 136 453.31 138.12 443.04 140.21 433.03 142.11 423.32 143.16 413.6 143.8 404.38 144.03 395.63 143.39 386.84 142.51 378.47 141.5 370.47 140.04 362.35 138.81 354.52 137.98 346.92 137.28 339.11 137.34 331.41 138.29 323.76 139.84 315.79 142.48 307.74 146.22 299.54 150.75 290.93 156.38 282.09 162.99 272.97 170.28 263.43 178.37 253.61 187.11 243.55 196.2 233.21 205.69 222.75 215.42 212.29 225.15 201.88 234.92 191.75 244.63 182.09 254.07 172.92 263.35 164.56 272.44 157.22 281.14 150.78 289.65 145.59 298 141.77 305.97 138.99 313.85 137.55 321.71 137.42 329.25 137.98 336.88 139.48 344.65 141.71 352.2 143.87 360.01 146.19 368.12 148.38 376.1 149.67 384.48 150.34 393.29 150.24 402.06 148.8 411.32 146.52 421.12 143.49" stroke-dasharray="0 0" transform="rotate(0, 400, 400)" opacity="0.71"></path><path d="M432.84 159.21C442.34 155.22 452.01 151.05 461.81 147 471.61 142.88 481.5 139.48 491.43 137.05 501.28 135.35 511.07 135.01 520.68 136.1 530.08 138.3 539.14 141.96 547.68 146.97 555.81 152.94 563.21 159.99 569.69 167.89 575.51 176.26 580.2 185.09 583.6 194.16 586.2 203.13 587.4 212.02 587.17 220.68 586.23 228.83 584.02 236.6 580.68 243.95 577.15 250.64 572.99 256.93 568.56 262.87 563.31 270.74 559.98 285.05 564.23 291.99 570.32 296.38 578.79 301.02 589.61 305.98 602.65 310.8 617.45 316.02 633.45 321.67 650.07 327.26 666.49 333.33 681.81 339.88 695.4 346.41 706.3 353.43 713.73 360.96 717.59 368.47 717.18 376.5 712.39 385.06 703.99 393.63 692.18 402.55 677.85 411.81 662.11 421.11 645.66 430.8 629.47 440.87 614.48 451.01 601.25 461.58 590.31 472.54 582.18 483.59 576.81 495.04 574.13 506.82 574.31 518.63 576.66 530.67 580.68 542.82 586.44 554.77 592.86 566.6 599.36 578.07 606.15 588.98 612.09 599.17 616.81 608.36 621.42 626.45 605.99 630.65 594.15 624.13 585.01 618.63 575.03 612.24 564.47 605.44 553.45 599.39 542.14 593.98 530.74 589.8 519.17 587.84 507.7 588 496.45 590.63 485.19 596.17 474.24 604.27 463.65 614.71 453.11 627.27 442.95 641.15 433.2 655.56 423.49 669.89 414.17 683 405.25 693.95 396.34 702.3 388 706.99 380.2 707.8 372.36 705.19 365.02 698.93 358.14 689.5 351.16 677.76 344.58 664.11 338.36 649.37 331.97 634.39 325.86 619.72 319.96 606.01 313.8 593.83 307.76 583.42 301.76 574.99 295.39 568.81 288.96 564.62 282.41 562.21 275.4 561.71 268.2 562.43 260.77 563.96 252.87 566.52 244.75 569.18 236.43 571.59 227.77 574.12 219.02 575.87 210.28 576.64 201.48 576.95 192.89 576.05 184.68 573.92 176.77 571.14 169.49 567.16 162.99 562.1 157.14 556.44 152.28 549.86 148.49 542.51 145.5 534.76 143.63 526.44 142.87 517.68 142.76 508.72 143.58 499.49 145.22 490.1 147.07 480.64 149.39 471.12 152.02 461.63 154.26 452.13 156.44 442.69 158.41 433.35 159.53 424.01 160.22 414.98 160.49 406.25 159.9 397.49 159.02 388.98 157.96 380.68 156.4 372.28 154.99 364.02 153.88 355.85 152.8 347.5 152.37 339.14 152.7 330.73 153.52 322.06 155.33 313.26 158.16 304.28 161.72 295.01 166.33 285.52 171.93 275.83 178.23 265.9 185.4 255.81 193.29 245.64 201.65 235.4 210.55 225.24 219.82 215.28 229.26 205.59 238.9 196.35 248.61 187.75 258.24 179.78 267.82 172.72 277.29 166.72 286.53 161.62 295.63 157.73 304.58 155.13 313.26 153.41 321.82 152.88 330.3 153.45 338.53 154.53 346.76 156.35 355.03 158.7 363.11 160.86 371.33 163.04 379.72 165.01 388.01 166.06 396.56 166.5 405.39 166.19 414.18 164.62 423.32 162.26 432.83 159.22" stroke-dasharray="0 0" transform="rotate(0, 400, 400)" opacity="0.30"></path><path d="M438.61 174.94C447.67 171.01 456.69 166.91 465.63 162.9 474.56 158.77 483.35 155.26 491.96 152.58 500.47 150.5 508.68 149.63 516.5 150.05 524.1 151.46 531.16 154.24 537.55 158.31 543.56 163.33 548.73 169.45 552.96 176.51 556.67 184.15 559.31 192.4 560.82 201.06 561.79 209.82 561.65 218.7 560.44 227.53 558.92 236.08 556.57 244.39 553.59 252.42 550.85 259.93 547.95 267.11 545.25 273.96 543.58 280.27 542.72 286.31 543.04 292.15 545.18 297.53 549 302.83 554.72 308.12 562.6 313.08 572.43 318.15 584.08 323.41 597.38 328.46 611.87 333.79 627.05 339.45 642.41 345 657.26 350.94 670.84 357.31 682.7 363.61 692.03 370.39 698.23 377.65 701.29 384.89 700.61 392.65 696.1 400.95 688.46 409.25 677.81 417.92 664.86 426.94 650.56 435.98 635.44 445.4 620.31 455.14 605.97 464.93 592.89 475.04 581.56 485.43 572.47 495.82 565.67 506.44 561.17 517.17 559.19 527.78 559.24 538.38 560.99 548.8 564.55 558.88 569.05 568.55 574.04 577.61 579.73 586 585.12 593.49 589.84 599.85 595.49 608.13 575.23 591.25 563.46 583 554.83 578.55 545.66 575.01 536.14 572.82 526.35 572.74 516.39 574.62 506.41 578.68 496.34 585.22 486.36 593.86 476.55 604.36 466.74 616.52 457.15 629.62 447.84 643 438.55 656.16 429.54 668.17 420.84 678.22 412.13 686.02 403.91 690.61 396.14 691.81 388.33 690.04 380.92 685.01 373.87 677.1 366.73 667.01 359.89 654.99 353.3 641.72 346.53 627.9 339.94 613.99 333.46 600.54 326.73 588.09 320.02 576.91 313.28 567.23 306.21 559.36 299.03 553.18 291.71 548.6 284.02 545.8 276.15 544.28 268.1 543.77 259.73 544.44 251.22 545.59 242.62 546.89 233.86 548.66 225.14 550.11 216.56 551.02 208.09 551.84 199.96 551.83 192.32 550.91 185.1 549.61 178.59 547.32 172.9 544.06 167.89 540.37 163.86 535.78 160.88 530.37 158.64 524.62 157.45 518.19 157.28 511.17 157.67 503.95 158.9 496.28 160.84 488.25 162.93 480.13 165.41 471.74 168.14 463.17 170.46 454.58 172.7 445.84 174.7 436.99 175.88 428.15 176.64 419.41 176.97 410.78 176.45 402.14 175.62 393.56 174.57 385.05 172.99 376.46 171.48 367.88 170.17 359.27 168.8 350.53 167.95 341.71 167.74 332.77 167.91 323.68 168.94 314.42 170.89 305.02 173.47 295.47 177.04 285.76 181.56 275.96 186.76 266.1 192.83 256.22 199.69 246.41 207.08 236.74 215.09 227.31 223.6 218.27 232.41 209.63 241.55 201.59 250.89 194.3 260.32 187.7 269.82 182.03 279.32 177.43 288.74 173.66 298.09 171.01 307.35 169.51 316.45 168.74 325.44 168.97 334.34 170.1 343.08 171.54 351.75 173.55 360.39 175.92 368.9 177.97 377.44 179.94 386.02 181.64 394.54 182.43 403.16 182.62 411.91 182.09 420.64 180.41 429.53 177.99 438.6 174.94" stroke-dasharray="0 0" transform="rotate(0, 400, 400)" opacity="0.60"></path><path d="M437.39 190.67C445.87 186.82 454.11 182.83 462.08 178.89 470.03 174.79 477.66 171.21 484.92 168.34 492.07 165.96 498.77 164.62 504.93 164.43 513.55 166.05 526.82 176.72 531.15 185.37 533.4 192.1 534.74 199.55 535.19 207.53 535.38 215.8 534.77 224.34 533.46 233.02 532.18 241.61 530.48 250.14 528.56 258.52 527.17 266.58 525.99 274.4 525.31 281.97 525.78 289.11 527.21 296.01 529.85 302.69 534.15 308.96 539.97 315.09 547.4 321.13 556.56 326.84 567.23 332.56 579.24 338.35 592.37 343.91 606.22 349.63 620.33 355.57 634.3 361.36 647.53 367.44 659.4 373.85 669.62 380.18 677.51 386.9 682.58 394.02 684.94 401.11 684.03 408.65 679.81 416.65 672.89 424.65 663.33 432.95 651.7 441.52 638.81 450.1 625.03 458.94 611.02 468.01 597.48 477.06 584.78 486.3 573.36 495.64 563.68 504.91 555.82 514.19 549.86 523.38 546.05 532.36 544.05 541.1 543.66 549.44 545.02 557.37 547.47 564.7 550.67 571.27 567.79 576.23 545.74 558.54 534.77 557.37 526.97 558.97 518.79 562.33 510.37 567.53 501.8 574.79 493.11 583.73 484.38 594.11 475.6 605.74 466.86 618 458.21 630.33 449.57 642.37 441.04 653.3 432.65 662.49 424.27 669.74 416.21 674.2 408.47 675.72 400.69 674.68 393.19 670.77 385.92 664.25 378.57 655.73 371.4 645.34 364.37 633.6 357.19 621.11 350.09 608.21 343.01 595.39 335.72 583.11 328.39 571.62 320.99 561.21 313.34 552.14 305.57 544.43 297.67 538.07 289.53 533.23 281.25 529.62 272.87 527.05 264.32 525.7 255.73 525.02 247.18 524.78 238.63 525.23 230.23 525.72 222.12 526.03 214.24 526.55 206.81 526.61 199.96 526.06 190.79 524.73 177.53 517.91 173.78 512.37 172.02 505.75 173.75 488.96 176.73 479.09 178.99 472.25 181.58 465 184.35 457.39 186.72 449.75 188.97 441.8 190.99 433.55 192.23 425.31 193.05 416.99 193.45 408.61 193.03 400.23 192.29 391.77 191.31 383.24 189.77 374.68 188.23 366.01 186.82 357.25 185.25 348.42 184.09 339.46 183.44 330.38 183.04 321.24 183.38 311.96 184.51 302.6 186.17 293.22 188.72 283.78 192.14 274.37 196.19 265.04 201.1 255.84 206.78 246.86 213.02 238.16 219.93 229.84 227.41 222.02 235.29 214.7 243.59 208.05 252.2 202.21 261.03 197.04 270.05 192.8 279.17 189.55 288.36 187.02 297.56 185.49 306.74 184.95 315.88 184.95 324.95 185.76 333.94 187.29 342.86 188.96 351.69 191.01 360.44 193.28 369.13 195.15 377.76 196.86 386.34 198.25 394.89 198.76 403.41 198.68 411.92 197.95 420.41 196.15 428.91 193.7 437.38 190.67" stroke-dasharray="0 0" transform="rotate(0, 400, 400)" opacity="0.45"></path><path d="M429.41 206.4C437.18 202.66 444.58 198.79 451.57 194.96 458.54 190.94 465.06 187.34 471.09 184.35 479.74 180.86 493.91 179.8 499.22 182.57 503.54 187.63 508.33 203.63 508.92 213.97 509.09 221.47 508.77 229.38 508.1 237.56 507.69 245.85 507.2 254.22 506.8 262.6 507.09 270.83 507.83 278.96 509.23 286.92 511.76 294.62 515.27 302.13 519.92 309.44 525.98 316.45 533.31 323.31 541.93 330.03 551.86 336.48 562.88 342.87 574.8 349.24 587.4 355.4 600.33 361.62 613.19 367.93 625.67 374.11 637.27 380.46 647.5 387 656.17 393.48 662.73 400.22 666.8 407.23 668.53 414.22 667.45 421.53 663.51 429.16 657.28 436.79 648.75 444.59 638.39 452.51 626.85 460.43 614.39 468.47 601.57 476.56 588.95 484.61 576.83 492.66 565.6 500.64 555.65 508.49 547.1 516.18 540.06 523.58 534.77 530.74 531.04 537.49 528.75 543.69 540.42 547.83 517.04 548.77 507.05 557.1 500.09 564.81 492.82 573.83 485.32 583.91 477.75 594.91 470.03 606.28 462.21 617.57 454.38 628.5 446.49 638.4 438.56 646.77 430.63 653.46 422.85 657.76 415.22 659.53 407.58 659.12 400.05 656.2 392.64 650.97 385.16 643.93 377.75 635.11 370.38 624.93 362.9 613.87 355.41 602.19 347.89 590.28 340.22 578.54 332.48 567.21 324.65 556.55 316.68 546.81 308.6 538.06 300.43 530.39 292.15 523.92 283.8 518.53 275.45 514.11 267.07 510.8 258.75 508.25 250.59 506.28 242.55 505.09 234.79 504.19 227.41 503.39 217.09 502.72 200.24 500.24 194.13 497.88 188.18 490.17 189.57 472.04 192.87 463.8 195.25 458.07 197.89 451.83 200.67 445.13 203.03 438.4 205.27 431.25 207.29 423.69 208.56 416.13 209.44 408.35 209.92 400.41 209.63 392.47 209.02 384.35 208.14 376.08 206.71 367.82 205.22 359.39 203.78 350.83 202.12 342.28 200.75 333.59 199.78 324.8 198.95 316.04 198.71 307.21 199.13 298.37 199.96 289.62 201.56 280.91 203.94 272.34 206.86 263.98 210.57 255.85 215.03 248.06 220.02 240.63 225.69 233.67 231.96 227.29 238.66 221.42 245.86 216.26 253.44 211.89 261.33 208.13 269.5 205.22 277.87 203.21 286.4 201.77 295.04 201.18 303.73 201.4 312.49 201.99 321.23 203.21 329.92 204.96 338.63 206.69 347.27 208.67 355.8 210.75 364.33 212.35 372.76 213.75 381.06 214.81 389.37 215.02 397.57 214.69 405.63 213.76 413.7 211.87 421.64 209.39 429.4 206.4" stroke-dasharray="0 0" transform="rotate(0, 400, 400)" opacity="0.38"></path><path d="M416.11 222.12C423.11 218.53 429.66 214.8 435.76 211.11 444.61 205.43 459.66 196.78 465.76 194.56 475.01 196.71 483.19 212.02 484.27 220.77 485.02 227.28 485.56 234.3 486.01 241.71 486.88 249.35 487.9 257.21 489.22 265.2 491.27 273.22 493.88 281.25 497.19 289.23 501.52 297.09 506.75 304.85 512.96 312.48 520.29 319.93 528.62 327.24 537.91 334.42 548.1 341.41 559.02 348.31 570.46 355.13 582.23 361.79 594.02 368.43 605.5 375.06 616.45 381.6 626.44 388.18 635.11 394.85 642.35 401.45 647.7 408.18 650.88 415.05 652.07 421.9 650.87 428.91 647.22 436.08 641.64 443.26 634.08 450.43 624.9 457.57 614.66 464.69 603.52 471.76 591.9 478.72 580.3 485.63 568.93 492.36 558.12 498.86 548.22 505.23 539.32 511.28 531.58 516.91 523.4 532.07 516.41 527.45 510.74 531.02 506.52 535.22 501.71 540.64 496.4 547.28 490.94 555.2 485.05 564.09 478.79 573.73 472.45 584 465.81 594.45 458.91 604.69 451.98 614.55 444.83 623.47 437.49 631.04 430.14 637.2 422.78 641.3 415.42 643.25 408.06 643.37 400.68 641.32 393.29 637.24 385.87 631.57 378.41 624.26 370.92 615.61 363.37 606.05 355.75 595.71 348.06 584.94 340.31 574.07 332.47 563.27 324.56 552.82 316.6 542.91 308.58 533.65 300.53 525.17 292.48 517.58 284.45 510.83 276.49 504.92 268.63 499.94 260.93 495.69 253.47 492.06 246.25 489.18 239.38 486.72 232.95 484.54 224.16 482.06 210.46 477.35 205.85 474.57 202.26 467.4 205.76 451.79 209.27 444.72 211.7 439.79 214.34 434.37 217.07 428.46 219.4 422.52 221.6 416.13 223.58 409.28 224.88 402.44 225.82 395.32 226.38 387.98 226.23 380.65 225.76 373.11 225.04 365.39 223.76 357.7 222.39 349.85 221.01 341.87 219.35 333.94 217.89 325.92 216.72 317.85 215.57 309.88 214.89 301.9 214.75 294 214.88 286.26 215.66 278.66 217.11 271.3 218.98 264.19 221.56 257.41 224.83 251.04 228.56 245.05 232.94 239.58 237.91 234.7 243.31 230.3 249.22 226.58 255.58 223.6 262.26 221.11 269.29 219.38 276.6 218.41 284.13 217.86 291.85 217.99 299.68 218.77 307.66 219.74 315.69 221.18 323.71 222.98 331.82 224.65 339.88 226.44 347.85 228.24 355.87 229.53 363.78 230.58 371.54 231.28 379.33 231.19 386.97 230.62 394.4 229.51 401.86 227.54 409.11 225.05 416.1 222.13" stroke-dasharray="0 0" transform="rotate(0, 400, 400)" opacity="0.53"></path><path d="M399.9 237.85C406.11 234.41 411.89 230.87 417.22 227.34 424.95 221.86 438.01 213.05 443.32 210.36 448.11 209.12 458.74 215.79 463.19 228.32 466.92 239.54 470.98 252.72 476.28 267.07 484.3 282 494.9 297.27 508.54 312.4 525.42 327.27 544.93 341.8 565.94 355.88 576.64 362.8 587.14 369.64 597.17 376.41 606.59 383.11 615.04 389.78 622.23 396.42 628.17 403.03 632.44 409.64 634.83 416.25 635.57 422.85 634.28 429.47 630.92 436.09 625.97 442.72 619.32 449.18 611.25 455.47 602.25 461.74 592.38 467.8 581.99 473.62 571.48 479.37 560.99 484.83 550.8 489.94 541.2 494.94 532.29 499.52 524.21 503.62 501.08 517.6 499.73 514.24 499.91 510.07 497.52 511.91 485.48 528.03 479.57 537.98 475.35 545.87 470.64 554.45 465.48 563.52 460.26 572.99 454.64 582.49 448.66 591.7 442.65 600.53 436.3 608.51 429.64 615.31 422.98 620.93 416.17 624.82 409.25 626.88 402.34 627.44 395.31 626.14 388.18 623.09 381.06 618.66 373.83 612.75 366.51 605.58 359.18 597.52 351.76 588.61 344.27 579.13 329.28 559.5 314.06 539.94 298.91 521.89 284.12 506.2 269.82 493.04 256.58 482.32 244.5 474.21 234.2 467.61 226.26 461.78 218.54 454.75 217.35 441.94 219.44 436.76 222.28 431.2 229.62 417.96 233.56 410.25 235.81 404.96 237.94 399.24 239.87 393.1 241.18 386.97 242.17 380.57 242.82 373.97 242.81 367.38 242.51 360.6 241.97 353.67 240.89 346.78 239.69 339.77 238.44 332.69 236.88 325.68 235.43 318.63 234.18 311.62 231.57 297.95 230.63 284.74 231.73 272.55 234.04 261.44 238.81 251.97 245.85 244.7 254.37 238.98 264.81 235.74 276.64 235.08 289.47 235.47 303.14 237.71 317.13 241.25 324.3 242.73 331.48 244.24 338.61 245.68 345.81 246.61 352.92 247.29 359.91 247.64 366.94 247.27 373.82 246.46 380.5 245.19 387.2 243.16 393.67 240.7 399.89 237.86" stroke-dasharray="0 0" transform="rotate(0, 400, 400)" opacity="0.08"></path><path d="M383.7 253.58C394.64 246.63 404.09 239.76 412.05 233.77 419.98 228.14 426.5 224.86 431.82 224.28 437.44 225.61 442.38 229.97 447.13 237 453.09 245.84 459.84 256.74 468.03 269.05 478.49 282.25 491.14 296.14 506.09 310.22 523.18 324.43 541.85 338.52 560.99 352.23 579.65 365.83 596.22 379.1 608.89 391.93 617.2 404.72 619.36 417.19 614.63 429.19 604.69 441.19 589.75 452.08 571.8 461.69 553.02 471.12 534.5 478.99 517.72 485.05 503.83 490.65 492.91 494.23 484.95 495.73 477.51 495.05 472.83 499.01 467.12 510.18 462.41 522.2 455.77 536.87 447.27 553.24 438.6 570.53 428.27 586.65 416.43 599.58 404.58 608.67 391.9 611.63 378.66 608.51 365.5 600.78 351.82 588.3 337.89 572.62 324.14 555.37 310.32 537.38 296.8 519.95 283.85 503.82 271.64 489.38 260.68 476.84 250.92 466.32 242.96 457.29 237.24 449.3 233.13 442.59 231.42 436.05 232.2 429.22 234.04 422.82 237.71 415.54 242.76 407.16 247.27 398.81 251.93 389.18 256.17 378.24 258.19 367.3 259.07 355.66 258.9 343.64 256.75 331.78 254.31 319.8 252.09 308.11 249.32 296.92 247.78 286.44 247.81 277.17 248.58 268.84 251.41 262.15 256.21 257.48 262.17 253.94 269.96 252.47 279.18 253.04 289.31 254.09 300.45 256.45 312.13 259.61 324.3 261.65 336.63 263.25 348.71 263.87 360.98 261.94 372.75 258.46 383.69 253.58" stroke-dasharray="0 0" transform="rotate(0, 400, 400)" opacity="0.55"></path><path d="M370.45 269.31C380.06 262.81 388.65 256.39 396.25 250.67 403.89 245.08 410.71 241.36 416.92 239.84 423.55 239.76 430.08 242.25 436.9 247.13 444.84 253.58 453.78 262.05 464.07 272.03 476.06 283 489.73 294.92 504.93 307.31 521.36 320.08 538.5 332.96 555.36 345.62 571.28 358.36 584.97 370.78 595.06 382.69 601.48 394.62 602.75 406.02 598.34 416.69 589.73 427.36 576.88 436.72 561.29 444.66 544.7 452.48 527.81 458.73 511.84 463.35 497.76 467.77 485.76 470.57 476.02 471.86 466.2 473.52 456.1 475.56 452.69 479.18 450.88 484.46 448.06 491.82 443.93 501.47 439.79 513.75 434.11 527.83 426.85 542.85 419.49 558.28 410.6 572.47 400.24 583.86 389.88 592.13 378.65 595.34 366.85 593.53 355.16 587.91 343.02 578.1 330.75 565.22 318.78 550.58 306.91 534.69 295.53 518.63 284.82 503.06 274.99 488.39 266.49 475.01 259.09 463 253.4 452.24 249.74 442.55 247.35 433.94 247 425.84 248.7 417.93 251.08 410.49 254.92 402.73 259.82 394.44 264.1 386.24 268.46 377.28 272.46 367.54 274.51 357.8 275.61 347.77 275.79 337.72 274.18 327.81 272.22 318.1 270.3 308.94 267.65 300.21 265.85 292.37 265.21 285.78 265.56 277.74 275.64 270.89 285.1 271.99 292.6 273.26 301.18 275.38 310.47 277.92 320.19 279.23 330.31 280.03 340.44 279.93 350.74 277.61 360.84 274.02 370.45 269.31" stroke-dasharray="0 0" transform="rotate(0, 400, 400)" opacity="0.22"></path><path d="M362.54 285.03C371.01 279.03 378.99 273.12 386.48 267.78 394.06 262.37 401.37 258.43 408.56 256.24 416.17 255.05 424.08 255.99 432.53 258.95 441.87 263.18 452.2 269.26 463.62 276.82 476.17 285.34 489.85 294.93 504.38 305.18 519.41 315.93 534.51 327 548.85 338.05 562.02 349.29 573 360.33 580.79 370.91 585.56 381.55 586.1 391.66 582.04 401 574.67 410.33 563.76 418.39 550.45 425.12 536.08 431.8 521.04 437.13 506.32 441.15 492.71 445.17 480.39 448.04 469.68 449.97 460.84 452.3 453.5 454.19 447.39 456.05 442.74 459.13 438.66 462.93 434.73 467.9 431.49 474.84 427.8 483.43 423.35 493.65 419.08 505.68 413.74 518.81 407.24 532.32 400.72 545.89 392.97 558.21 384.01 568.13 375.06 575.57 365.4 578.91 355.31 578.16 345.34 574.35 335.1 566.96 324.88 556.77 315 544.84 305.4 531.38 296.43 517.27 288.09 503.05 280.7 489.1 274.61 475.86 269.43 463.39 265.79 451.82 263.9 441.17 262.92 431.3 263.62 422.05 265.94 413.28 268.63 404.92 272.44 396.66 277.06 388.37 281.02 380.19 285.03 371.75 288.75 363.06 290.81 354.37 292.09 345.84 292.62 337.63 291.56 329.52 290.16 321.91 288.69 315.05 286.37 294.75 303.23 293.46 313.45 296.01 320.85 296.54 328.83 296.56 337.13 295.8 345.54 293.17 354.07 289.53 362.54 285.03" stroke-dasharray="0 0" transform="rotate(0, 400, 400)" opacity="0.22"></path><path d="M361.41 300.76C368.92 295.3 376.4 289.95 383.84 285.06 391.38 279.98 399.06 276.03 406.96 273.43 415.21 271.48 423.97 271.2 433.32 272.58 443.29 274.91 454.07 278.83 465.63 284.1 477.79 290.19 490.6 297.35 503.7 305.29 516.8 313.72 529.55 322.63 541.27 331.7 551.79 341.02 560.29 350.3 566.06 359.3 569.44 368.37 569.43 377.05 565.75 385.11 559.52 393.17 550.41 400.18 539.24 406.14 527.06 412.1 514.03 417.06 500.9 421.1 488.29 425.28 476.36 428.77 465.46 431.77 455.79 435.28 447.22 438.74 439.67 442.44 433.26 447.21 427.49 452.73 422.12 459.22 417.41 467.17 412.65 476.3 407.6 486.49 402.79 497.82 397.4 509.73 391.31 521.61 385.24 533.33 378.37 543.88 370.67 552.4 362.98 559.01 354.89 562.35 346.6 562.42 338.41 560.12 330.18 554.85 322.17 547.14 314.44 537.86 307.15 526.98 300.57 515.17 294.5 502.91 289.38 490.44 285.44 478.22 282.18 466.27 280.23 454.85 279.73 444.09 279.8 433.8 281.2 424.09 283.86 414.95 286.62 406.11 290.24 397.62 294.46 389.44 298.02 381.36 301.63 373.42 305.05 365.65 307.07 357.89 308.5 350.64 309.34 344.01 304.33 314.67 314.21 312.4 321.66 313.72 327.1 313.48 333.26 312.77 339.96 311.45 346.72 308.6 353.9 305 361.41 300.76" stroke-dasharray="0 0" transform="rotate(0, 400, 400)" opacity="0.98"></path><path d="M367.26 316.49C373.93 311.6 380.91 306.85 388.15 302.49 395.48 297.87 403.2 294.11 411.3 291.37 419.65 288.98 428.54 287.87 437.96 288.07 447.72 288.89 458.06 291.02 468.84 294.33 479.83 298.23 491.08 303.14 502.22 308.83 513.08 314.95 523.35 321.63 532.5 328.64 540.56 335.87 546.86 343.26 550.92 350.58 553.15 357.97 552.73 365.2 549.45 372.08 544.28 378.95 536.82 385.14 527.66 390.63 517.59 396.15 506.62 401.07 495.31 405.47 484.13 410.05 473.18 414.33 462.78 418.46 453.1 423.07 444.12 427.85 435.9 432.97 428.46 438.92 421.59 445.51 415.2 452.82 409.35 461.1 403.67 470.15 398.05 479.78 392.66 490.05 387.08 500.51 381.23 510.7 375.42 520.61 369.23 529.47 362.64 536.67 356.05 542.44 349.4 545.66 342.82 546.33 336.32 545.25 330 541.77 324.06 536.26 318.33 529.43 313.14 521.09 308.68 511.74 304.57 501.79 301.35 491.33 299.16 480.77 297.38 470.17 296.7 459.75 297.14 449.72 297.89 439.89 299.66 430.48 302.36 421.6 305 412.9 308.26 404.63 311.99 396.82 315.1 389.09 318.27 381.73 321.34 374.82 324.05 364.82 325.82 348.6 325.36 342.54 326.18 331.62 341.27 329.29 349.07 326.86 354.51 323.9 360.59 320.4 367.26 316.49" stroke-dasharray="0 0" transform="rotate(0, 400, 400)" opacity="0.94"></path><path d="M379.03 332.22C384.92 327.94 391.29 323.83 398.06 320.05 404.89 316 412.19 312.6 419.89 309.95 435.68 305.17 453.4 304.47 471.94 307.67 490.38 312.37 508.12 320.36 522.44 330.4 528.31 335.66 532.73 341.22 535.37 346.95 536.7 352.72 536 358.57 533.16 364.38 528.96 370.19 523 375.68 515.68 380.84 507.62 386.03 498.7 390.99 489.32 395.75 470.48 405.79 451.94 416.13 435.29 427.41 420.45 440.88 407.13 456.43 395.11 473.27 389.39 482.2 383.74 491.07 378.14 499.55 372.59 507.72 366.99 514.99 361.36 520.95 353.03 527.37 337.85 528.74 331.32 524.07 323.29 513.79 317.8 498.98 315.62 482.27 314.28 464.72 316.26 447.19 321.32 431.13 323.65 423.19 326.45 415.63 329.61 408.55 332.23 401.51 334.94 394.89 337.63 388.81 340.24 380.07 342.93 366.45 343.3 361.53 343.03 351.17 357.12 344.98 363.48 342.01 367.95 339.05 373.13 335.75 379.03 332.22" stroke-dasharray="0 0" transform="rotate(0, 400, 400)" opacity="0.09"></path><path d="M394.59 347.94C404.81 340.23 416.98 333.68 430.41 329.05 444.01 324.4 458.84 322.71 473.69 323.98 487.99 326.04 501.08 330.85 511.05 337.77 518.34 345.06 520.69 353.84 516.86 363.51 509.4 373.17 497.29 382.85 482.73 392.45 467.45 402.55 451.66 413.43 436.8 425.13 422.78 438.07 409.79 452.25 398.18 466.73 387.05 481.51 376.6 495.05 367.07 505.22 357.54 512.6 349.72 514.18 343.9 510.6 338.28 504.15 335.03 493.89 334.44 481.57 334.09 468.24 336.23 454.26 340.59 440.98 344.13 427.68 348.77 415.39 353.93 404.94 356.57 394.49 358.83 386.7 360.75 381.4 360.91 374.08 365.24 366.4 371.86 363.09 376.84 358.69 384.37 353.55 394.59 347.94" stroke-dasharray="0 0" transform="rotate(0, 400, 400)" opacity="0.36"></path><path d="M411.13 363.67C419.64 357.44 429.59 352.26 440.31 348.52 451.01 344.53 462.26 342.6 473.03 342.84 483.19 343.35 492.03 346.03 498.32 350.63 502.84 355.39 503.84 361.79 500.57 369.62 495.04 377.44 486.17 386.01 475.34 395.03 463.78 404.33 451.36 414.5 439.22 425.22 427.32 436.48 415.96 448.35 405.73 459.95 395.73 471.42 386.59 481.73 378.74 489.49 367.9 496.51 355.92 489.24 354.97 477.8 354.92 468.71 356.68 458.63 360.01 448.61 362.6 438.44 366.1 428.71 370.22 420.12 373.89 408.17 379.32 392.65 382.45 387.87 384.09 384.2 387.11 380.94 391.78 377.87 396.22 373.32 402.62 368.5 411.13 363.67" stroke-dasharray="0 0" transform="rotate(0, 400, 400)" opacity="0.39"></path><path d="M425.65 379.4C438.86 369.34 454.98 363.64 469.16 363.51 481.49 363.39 488.14 369.54 484.28 381.55 475.52 393.56 459.01 409.58 441.34 426.58 423.51 444.13 406.5 461.91 394.25 473.76 381.99 481.82 376.17 479.55 376.33 470.42 375.7 459.13 379.49 444.59 386.52 431.45 389.61 418.31 394.19 408.83 400.15 402.54 404.21 394.24 412.45 386.23 425.65 379.4" stroke-dasharray="0 0" transform="rotate(0, 400, 400)" opacity="0.84"></path><path d="M435.54 395.13C459.46 386.79 457.89 410.86 442 428 430.67 439.48 419.3 450.66 410.8 458.04 400.15 463.7 397.41 449.71 402.81 436.76 405.45 427.92 409.82 420.14 415.21 413.98 419.71 406.93 426.54 400.25 435.54 395.13" stroke-dasharray="0 0" transform="rotate(0, 400, 400)" opacity="0.46"></path></g></svg>